PathFileType	4	(X/Y/Z)	C:\Users\willi\Documents\UniDataLokal\DATA_Hans_PhD\TD03\3DGAIT_B_W4\marker_experimental.trc
DataRate	CameraRate	NumFrames	NumMarkers	Units	OrigDataRate	OrigDataStartFrame	OrigNumFrames
100.000000	100.000000	3	137	mm	100.000000	26	210
Frame#	Time	LFEO			LFEA			LFEL			LFEP			LFOO			LFOA			LFOL			LFOP			LTIO			LTIA			LTIL			LTIP			LTOO			LTOA			LTOL			LTOP			PELO			PELA			PELL			PELP			RFEO			RFEA			RFEL			RFEP			RFOO			RFOA			RFOL			RFOP			RTIO			RTIA			RTIL			RTIP			RTOO			RTOA			RTOL			RTOP			TRXO			TRXA			TRXL			TRXP			C7			T10			CLAV			STRN			RBAK			LASI			RASI			LPSI			RPSI			LTHI			LKNE			LMKNE			LPAT			LTUB			LTIB			LANK			LMMA			LHEE			LTOE			LD5M			RTHI			RKNE			RMKNE			RPAT			RTUB			RTIB			RANK			RMMA			RHEE			RTOE			RD5M			LTH1			LTH2			LTH3			LTB1			LTB2			LTB3			LTB4			LTB5			RTH1			RTH2			RTH3			RTB1			RTB2			RTB3			RTB4			RTB5			LIC			RIC			CentreOfMass			CentreOfMassFloor			LHipAngles			LKneeAngles			LAnkleAngles			LAbsAnkleAngle			RHipAngles			RKneeAngles			RAnkleAngles			RAbsAnkleAngle			LSpineAngles			RSpineAngles			LThoraxAngles			RThoraxAngles			LPelvisAngles			RPelvisAngles			LFootProgressAngles			RFootProgressAngles			LAnklePower			RAnklePower			LKneePower			RKneePower			LHipPower			RHipPower			LWaistPower			RWaistPower			LGroundReactionForce			RGroundReactionForce			LNormalisedGRF			RNormalisedGRF			LAnkleForce			RAnkleForce			LKneeForce			RKneeForce			LHipForce			RHipForce			LWaistForce			RWaistForce			LGroundReactionMoment			RGroundReactionMoment			LAnkleMoment			RAnkleMoment			LKneeMoment			RKneeMoment			LHipMoment			RHipMoment			LWaistMoment			RWaistMoment			
		X1	Y1	Z1	X2	Y2	Z2	X3	Y3	Z3	X4	Y4	Z4	X5	Y5	Z5	X6	Y6	Z6	X7	Y7	Z7	X8	Y8	Z8	X9	Y9	Z9	X10	Y10	Z10	X11	Y11	Z11	X12	Y12	Z12	X13	Y13	Z13	X14	Y14	Z14	X15	Y15	Z15	X16	Y16	Z16	X17	Y17	Z17	X18	Y18	Z18	X19	Y19	Z19	X20	Y20	Z20	X21	Y21	Z21	X22	Y22	Z22	X23	Y23	Z23	X24	Y24	Z24	X25	Y25	Z25	X26	Y26	Z26	X27	Y27	Z27	X28	Y28	Z28	X29	Y29	Z29	X30	Y30	Z30	X31	Y31	Z31	X32	Y32	Z32	X33	Y33	Z33	X34	Y34	Z34	X35	Y35	Z35	X36	Y36	Z36	X37	Y37	Z37	X38	Y38	Z38	X39	Y39	Z39	X40	Y40	Z40	X41	Y41	Z41	X42	Y42	Z42	X43	Y43	Z43	X44	Y44	Z44	X45	Y45	Z45	X46	Y46	Z46	X47	Y47	Z47	X48	Y48	Z48	X49	Y49	Z49	X50	Y50	Z50	X51	Y51	Z51	X52	Y52	Z52	X53	Y53	Z53	X54	Y54	Z54	X55	Y55	Z55	X56	Y56	Z56	X57	Y57	Z57	X58	Y58	Z58	X59	Y59	Z59	X60	Y60	Z60	X61	Y61	Z61	X62	Y62	Z62	X63	Y63	Z63	X64	Y64	Z64	X65	Y65	Z65	X66	Y66	Z66	X67	Y67	Z67	X68	Y68	Z68	X69	Y69	Z69	X70	Y70	Z70	X71	Y71	Z71	X72	Y72	Z72	X73	Y73	Z73	X74	Y74	Z74	X75	Y75	Z75	X76	Y76	Z76	X77	Y77	Z77	X78	Y78	Z78	X79	Y79	Z79	X80	Y80	Z80	X81	Y81	Z81	X82	Y82	Z82	X83	Y83	Z83	X84	Y84	Z84	X85	Y85	Z85	X86	Y86	Z86	X87	Y87	Z87	X88	Y88	Z88	X89	Y89	Z89	X90	Y90	Z90	X91	Y91	Z91	X92	Y92	Z92	X93	Y93	Z93	X94	Y94	Z94	X95	Y95	Z95	X96	Y96	Z96	X97	Y97	Z97	X98	Y98	Z98	X99	Y99	Z99	X100	Y100	Z100	X101	Y101	Z101	X102	Y102	Z102	X103	Y103	Z103	X104	Y104	Z104	X105	Y105	Z105	X106	Y106	Z106	X107	Y107	Z107	X108	Y108	Z108	X109	Y109	Z109	X110	Y110	Z110	X111	Y111	Z111	X112	Y112	Z112	X113	Y113	Z113	X114	Y114	Z114	X115	Y115	Z115	X116	Y116	Z116	X117	Y117	Z117	X118	Y118	Z118	X119	Y119	Z119	X120	Y120	Z120	X121	Y121	Z121	X122	Y122	Z122	X123	Y123	Z123	X124	Y124	Z124	X125	Y125	Z125	X126	Y126	Z126	X127	Y127	Z127	X128	Y128	Z128	X129	Y129	Z129	X130	Y130	Z130	X131	Y131	Z131	X132	Y132	Z132	X133	Y133	Z133	X134	Y134	Z134	X135	Y135	Z135	X136	Y136	Z136	X137	Y137	Z137	

27	0.26	-1097.302856445312	433.6697082519532	239.7918090820312	-741.7443237304688	374.1503601074219	190.4422149658203	-1144.126708984375	452.7219848632813	-120.5473937988282	-1035.776733398438	792.1307373046876	250.7498474121093	-1349.619018554688	40.62099838256844	244.1138305664062	-1189.656127929688	127.584945678711	176.6779174804687	-1413.281860351562	16.7002716064454	62.25329589843741	-1439.3818359375	212.5613708496095	252.920669555664	-1398.800537109375	169.9261779785157	257.814971923828	-1199.887573242188	-71.88096618652337	46.79167175292962	-1548.468505859375	319.6536865234376	-54.83337402343759	-1114.897338867188	418.2784729003907	240.8436279296874	-1319.698120117188	-16.69246482849113	241.1781921386718	-1266.377197265625	12.29553031921395	218.6995544433593	-1340.919067382812	-24.666067123413	180.5580139160155	-1349.619140625	40.6210250854493	244.113800048828	-1022.541748046875	797.1218261718751	315.9679260253906	-892.1840209960938	783.9607543945312	290.5210266113281	-1049.011840820312	787.1395874023439	185.5317687988281	-1011.582885742187	929.5643920898439	303.6082153320312	-913.3139038085938	478.8410034179688	359.0050048828124	-600.1338500976562	577.3381958007812	278.8309631347656	-996.4700927734375	476.6232910156251	31.45126342773431	-1009.306701660156	802.1129150390626	381.1860046386718	-745.4005126953125	60.66498565673832	381.3579711914062	-748.8005981445312	254.0419311523438	385.1247863769531	-709.5664672851562	64.99696350097661	191.3117980957031	-935.4656372070312	58.02234649658209	345.4601135253906	-878.2468872070312	71.65715789794928	343.7436218261718	-496.7223510742188	103.0601425170899	382.5432434082031	-840.7891235351562	89.22097778320318	-38.80166625976567	-911.2388916015625	454.7469787597657	358.1019592285156	-682.0454711914062	61.54587554931645	393.3239135742187	-683.1788940429688	126.0048599243164	394.5795288085937	-670.1007690429688	62.98989105224614	329.9751892089843	-745.4005126953125	60.66497802734379	381.3579406738281	-1018.40234375	1264.776000976562	309.2407531738281	nan	nan	nan	nan	nan	nan	nan	nan	nan	-1124.717041015625	1333.257568359375	317.8653259277343	-1145.814697265625	1028.048828125	322.6408386230468	-1013.919677734375	1265.074462890625	308.9812316894531	-961.1768188476561	1104.3017578125	314.7269287109374	-1146.020385742188	1238.732177734375	437.3455200195312	-997.5455322265625	873.5140991210939	195.3741607666015	-955.0316162109375	889.5466308593751	404.8694152832031	-1152.980590820312	894.3463745117189	288.8812866210937	-1136.237915039062	902.2470703125001	372.2012939453124	-1092.904907226562	549.3058471679689	132.0124816894531	-1105.409912109375	436.9684143066407	177.4027404785156	-1100.08203125	418.2870178222657	299.9211120605468	-1058.643432617188	391.5607604980469	219.7356719970703	-1113.66162109375	355.6949462890626	220.0950927734374	-1334.219604492188	303.5469055175782	165.5764007568359	-1413.863037109375	184.9948272705079	226.349884033203	-1381.721313476562	173.489471435547	299.3959045410156	-1469.915893554688	202.2580871582032	275.9664001464843	-1376.816772460938	41.13092803955087	257.8253479003906	-1417.50146484375	37.33311462402352	221.6967620849609	-902.3223266601562	534.2930908203125	470.0660095214843	-897.3200073242188	479.2675170898438	422.0050964355468	-913.0045166015625	477.6768493652344	287.1874389648437	-839.2127075195312	483.1250305175782	344.3102111816406	-838.9752197265625	414.8294677734376	353.4262084960937	-897.8776245117188	192.5457611083985	438.9342956542968	-881.8974609375	69.94540405273443	381.0262145996093	-855.2205200195312	90.41364288330084	303.0061645507812	-934.296142578125	38.76175689697271	335.1779785156249	-736.2896728515625	39.89279174804692	372.2981567382812	-769.9336547851562	23.71743392944341	415.4316406249999	-1158.056518554688	609.9422607421876	214.6571350097656	-1136.265625	562.9072265625001	178.1190338134765	-1160.96484375	514.7269287109376	216.8224029541015	-1217.257446289062	284.8849792480469	250.3872833251952	-1262.804321289062	261.2493286132813	205.3968811035155	-1291.236694335938	227.4593658447266	260.2218017578124	-1142.322631835938	411.7733764648438	175.8786468505859	-1132.50048828125	400.1160888671876	297.7390747070312	-973.6321411132812	609.7631835937501	451.8762207031249	-911.3331298828125	581.1668090820312	437.0940856933593	-935.9697265625	517.0489501953126	432.8949584960937	-844.7272338867188	332.6754455566407	339.3457031249999	-847.44482421875	277.3671264648438	392.0937499999999	-848.2972412109375	232.2747192382813	337.0153198242187	-896.8705444335938	447.1831665039063	417.2347106933593	-912.5894775390625	430.9450073242188	291.3406982421874	-1076.736328125	946.0585327148439	166.628189086914	-1026.235229492188	968.3099365234376	453.2772521972656	-1025.751342773438	830.4296264648439	303.9860229492187	-1025.751342773438	6.280915493242949e-14	303.9860229492187	7.853739261627197	2.836272716522216	3.603581666946412	1.020231723785401	-26.88555335998535	-39.29658508300781	9.192062377929688	29.79231452941895	15.56179904937744	-8.243801207962547e-16	0	13.46314907073975	-4.551297187805174	1.509519577026367	-22.67331123352051	-1.237883925437928	-20.01889038085938	-11.64880752563477	-1.412848114967347	-5.061478614807129	3.667671680450439	-2.237032200108751e-16	0	3.653350830078125	3.53668451309204	-7.956991195678711	8.815808296203613	-3.536684513092041	7.956991195678711	8.815808296203613	1.290467619895935	-3.306992530822754	3.885040998458862	-1.290467619895935	3.306992530822754	3.885040998458862	5.31340742111206	-11.03923892974854	-4.730124473571777	-5.31340742111206	11.03923892974854	-4.730124473571777	-20.3453426361084	-2.599749088287352	27.56716346740723	-1.13549971580506	-10.69454956054688	90.79660034179688	-2.404559236211029e-17	-0.3926943242549896	-1.472367885993021e-33	-3.194476179849534e-18	-0.05216975510120392	-1.956052514302598e-34	-5.561224650083906e-18	-0.09082169085741043	-3.405267983532307e-34	-2.454334279480341e-17	-0.4008232057094574	-1.502846309701612e-33	3.089907164527234e-17	0.5046201348304749	1.892022459350375e-33	-3.111553724259621e-17	-0.5081552863121033	-1.905277154394785e-33	-2.250526408504797e-18	-0.03675388544797897	-1.378049981285994e-34	-2.250526408504797e-18	-0.03675388544797897	-1.378049981285994e-34	nan	nan	nan	-2.027580022811889	9.691164016723633	-0.1898451894521714	nan	nan	nan	1.935221195220955	98.78861999511719	-20.66850090026855	0.1049135848879814	-0.1808897703886032	0.3500140011310577	0.0221197921782739	1.872199773788452	-9.557296752929688	-0.06585453450679774	1.092380046844482	0.2678582668304443	0.4121262133121485	-9.221156120300293	-0.9831433296203613	-0.02419399470090851	2.236160278320312	-0.3051044940948486	0.279540061950683	-8.165556907653809	1.378957271575928	-0.109364725649357	-4.412112712860107	-1.666124582290649	-0.109364725649357	-4.412112712860107	-1.666124582290649	nan	nan	nan	-1094.27587890625	-237.7750244140624	793.9151611328124	1.137918733836326e-15	-16.64947319030762	53.17866516113281	-11.21014881134033	-22.37374877929688	-29.54859161376953	36.01871490478516	-0.2975992858409904	-7.181004524230955	-173.6135559082031	-22.13855361938475	-465.8364868164062	82.7794723510742	17.74659729003906	258.3214111328125	-456.9203491210938	-78.80975341796872	-90.2128829956055	-139.031967163086	13.24598407745362	461.262939453125	139.0319671630859	-13.24598407745362	461.262939453125	
28	0.27	-1075.299926757812	432.2604064941407	236.2176818847656	-717.4436645507812	383.0601196289063	186.2199096679687	-1122.619262695312	454.8139648437501	-124.6614685058594	-1023.518371582031	792.8879394531251	251.9658050537109	-1343.638916015625	42.78270721435555	242.630142211914	-1179.982788085938	114.3315429687501	166.4996032714843	-1417.293212890625	21.45447921752938	64.25253295898429	-1417.734375	222.0151977539063	251.7946166992187	-1380.804931640625	176.0936431884766	255.7925872802734	-1190.784912109375	-66.92083740234368	41.22216796874993	-1530.421752929688	330.9962463378907	-52.14259338378915	-1093.209228515625	417.2434692382813	237.3652191162109	-1318.9404296875	-16.96145439147941	239.5753326416015	-1264.388427734375	6.888153076171952	214.198501586914	-1343.491821289062	-24.07086753845207	180.1161193847655	-1343.638916015625	42.78270721435555	242.630157470703	-1010.671020507812	798.3222045898439	317.2259521484374	-880.1160888671875	785.5896606445312	292.5846252441406	-1036.365844726562	787.4536743164064	186.7056427001953	-1000.226318359375	930.7369384765626	304.1434631347656	-905.1005249023438	479.6828002929688	360.0758666992187	-589.62451171875	575.0739135742188	285.9207763671874	-982.5657958984375	480.2571411132813	31.25625610351556	-997.8236083984375	803.7564697265626	382.4861755371093	-745.0177612304688	60.58875656127934	381.7775878906249	-748.370361328125	253.9623260498047	385.7559509277343	-709.0330200195312	65.12187194824223	191.7645416259765	-935.0552978515625	58.03562545776373	345.7272949218749	-877.8317260742188	71.65739440917974	344.0709838867187	-495.664306640625	95.61112976074222	384.5277404785156	-838.4326782226562	89.29887390136724	-38.55020141601567	-903.488037109375	455.5551757812501	359.1294555664062	-681.6719970703125	61.43979263305668	393.7943420410156	-682.78955078125	125.8976440429688	395.1204528808593	-669.6771240234375	62.95080184936528	330.4566650390624	-745.017822265625	60.58873748779301	381.7776184082031	-1006.636291503906	1266.112548828125	310.1706542968749	nan	nan	nan	nan	nan	nan	nan	nan	nan	-1113.135620117188	1334.434204101562	319.0032348632812	-1134.332397460938	1029.298706054688	322.6100769042968	-1002.153137207031	1266.410766601562	309.9202270507812	-949.4448852539061	1105.532592773438	315.4335632324218	-1133.886596679688	1239.568359375	438.6869812011718	-985.357177734375	874.1032714843751	196.2169036865234	-944.0465698242188	891.5770874023439	406.0598754882812	-1141.271362304688	894.5097045898439	288.4216003417968	-1125.074096679688	903.4742431640626	371.8113403320312	-1074.123779296875	548.9301757812501	129.8270568847656	-1083.474853515625	436.1567382812501	173.8719482421874	-1075.062133789062	415.6324157714844	296.0479125976562	-1036.109497070312	390.6642456054688	215.0164489746093	-1091.440673828125	354.5692443847657	215.8437042236328	-1314.567138671875	308.7661437988282	164.1915893554687	-1395.934814453125	191.7582092285157	224.6525421142577	-1363.822387695312	178.6977691650391	297.4595947265624	-1450.351684570312	212.7176055908204	274.4786071777343	-1369.910400390625	44.29130172729501	257.5227050781249	-1409.772338867188	43.8620033264161	221.414566040039	-895.4769287109375	534.5509033203125	471.5979309082031	-890.1954345703125	479.5722656250001	423.3437499999999	-903.4445190429688	479.0287475585938	288.2442626953124	-830.6587524414062	482.8477172851563	346.5355834960937	-831.70166015625	414.2918395996094	355.1341247558593	-895.5225830078125	192.7656707763672	439.4788513183593	-881.6687622070312	69.93928527832037	381.3345336914062	-854.6742553710938	90.39048767089849	303.3762817382812	-934.2200927734375	38.84532165527349	335.3970031738281	-735.9086303710938	39.82496643066411	372.7012634277343	-769.8648071289062	23.14242172241216	415.9863586425781	-1139.840576171875	606.6362915039064	214.2156066894531	-1117.361083984375	560.7330322265626	176.6280059814453	-1140.150268554688	511.3514099121094	214.9577484130859	-1196.581298828125	285.7874145507813	246.6842041015624	-1243.540283203125	263.8116149902344	202.1652526855468	-1272.084716796875	230.1097717285157	257.1352844238281	-1120.168823242188	411.2213439941407	172.4930267333984	-1107.615600585938	397.5260314941407	294.2237854003906	-965.429931640625	610.7558593750001	452.9798583984374	-903.4049682617188	581.7125854492188	438.7370605468749	-928.8269653320312	517.9041137695314	433.9407653808593	-839.1445922851562	332.1843261718751	340.5037536621093	-843.4060668945312	276.7559814453126	393.1159667968749	-844.7865600585938	231.8473510742188	337.8484802246093	-889.9989624023438	447.5086975097657	418.4305725097656	-904.3306884765625	432.1054992675782	292.2185668945312	-1065.030883789062	946.4494018554689	167.2156829833984	-1015.315063476562	970.0513916015626	453.7650756835937	-1013.582824707031	831.6256713867189	304.1331481933593	-1013.582824707031	6.206404809740993e-14	304.1331481933593	8.632561683654785	2.542438983917236	2.120575189590455	0.6355502605438241	-27.35466003417969	-42.16253662109375	9.10584831237793	29.5904598236084	20.04248237609863	-1.061685628713099e-15	0	17.33864212036133	-5.17219018936157	0.6837632656097415	-21.94804763793945	-1.208558917045594	-19.25839614868164	-12.16722393035889	-1.356538772583008	-4.822010040283203	2.588991403579712	-1.579685270195185e-16	0	2.579821825027466	4.047676086425779	-7.690209865570068	8.600436210632324	-4.047676086425781	7.690209865570068	8.600436210632324	1.118617296218872	-3.190576314926147	3.868407011032104	-1.118617296218872	3.190576314926147	3.868407011032104	5.625114440917968	-10.69122314453125	-4.510084629058838	-5.625114440917968	10.69122314453125	-4.510084629058838	-23.11250877380371	-2.705389499664305	22.46042251586914	-1.199437856674201	-10.74048042297363	90.76971435546875	-2.729763485034273e-17	-0.4458042085170746	-1.671498057188273e-33	-6.398034261245869e-18	-0.1044878289103508	-3.917666089434927e-34	-1.101103667261247e-17	-0.1798238754272461	-6.742315408204489e-34	-1.560105626616507e-17	-0.2547845840454102	-9.552891809838404e-34	3.938153757969655e-17	0.6431493163108826	2.411423697123829e-33	-3.664817308671084e-17	-0.5985100865364075	-2.24405339326193e-33	3.805988754990544e-18	0.06215651333332062	2.330495973194995e-34	3.805988754990544e-18	0.06215651333332062	2.330495973194995e-34	nan	nan	nan	-2.048656702041626	10.18559646606445	-0.2774358391761781	nan	nan	nan	2.828092098236092	103.8287048339844	-20.88335227966309	0.1406205296516418	-0.1912519931793213	0.3898572027683258	0.1190200969576843	1.918157815933228	-10.0606689453125	-0.06974878162145609	1.137575626373291	0.3338324427604675	0.4816956818103785	-9.708393096923828	-1.19747257232666	-0.03130402415990813	2.36518669128418	-0.3677985370159149	0.3586982786655419	-8.713473320007324	1.362255215644836	-0.1084967851638796	-4.813103199005127	-1.871163606643677	-0.1084967851638796	-4.813103199005127	-1.871163606643677	nan	nan	nan	-1157.757934570312	-235.6782989501953	860.2743530273436	-2.719666010110168e-15	-22.07834815979004	69.85848999023438	-18.21572685241699	-22.67246055603027	-61.75374221801758	51.23555374145508	2.170963764190671	-17.2739200592041	-214.088394165039	-21.76596832275389	-520.4592895507812	95.6011276245117	26.50709533691406	282.0508117675781	-536.8800048828125	-91.37586975097653	-44.71203231811527	-98.05335998535159	21.15312957763673	543.56201171875	98.05335998535153	-21.15312957763673	543.56201171875	
29	0.28	-1052.744384765625	431.4204406738282	232.7623291015624	-693.232666015625	393.5708007812501	180.4394836425781	-1102.55810546875	457.2171630859376	-128.1698913574219	-1011.648498535156	793.8026733398439	252.9908905029296	-1334.844848632812	46.68139648437509	240.6749725341796	-1169.220825195312	105.6805419921876	158.2965393066405	-1416.139526367188	29.82851219177255	65.15985107421866	-1395.328491210938	230.8918609619141	251.0018615722655	-1361.720092773438	182.4188537597657	254.069839477539	-1179.69921875	-61.99507141113274	37.27162170410149	-1510.66796875	341.2210083007814	-50.01512145996103	-1070.938110351562	416.7582397460938	234.0170135498046	-1314.68359375	-14.72209835052482	237.2326660156249	-1259.4755859375	4.944289207458573	209.7731628417968	-1341.781860351562	-20.33974838256828	178.7276153564452	-1334.844848632812	46.68140411376962	240.6749420166015	-999.169921875	799.5859985351564	318.2926025390624	-868.4360961914062	787.265625	294.4017944335937	-1024.126953125	788.0194702148439	187.6891326904296	-989.1844482421874	931.9805908203126	304.6593017578124	-897.7749633789062	480.3415832519532	361.0452270507812	-579.8040771484375	572.0070190429688	293.5946960449218	-968.81005859375	483.8133544921876	30.89437866210931	-986.6914672851562	805.3692626953126	383.5943603515624	-744.712158203125	60.59444808959965	382.1257629394531	-748.1651000976562	253.9595489501954	386.4175109863281	-708.568115234375	65.45638275146489	192.1511077880859	-934.7175903320312	58.00528717041021	345.9095764160156	-877.49951171875	71.65836334228521	344.3242492675781	-494.9740905761719	88.87388610839847	387.3947143554687	-835.220703125	89.40923309326178	-38.26504516601567	-896.5768432617188	456.1914062500001	360.0571289062499	-681.3770141601562	61.45748901367192	394.1977844238281	-682.5280151367188	125.9125289916993	395.6283569335937	-669.3290405273438	63.07811737060551	330.8728942871093	-744.7122192382812	60.59442901611332	382.1257629394531	-995.1168212890624	1267.51806640625	310.9553527832031	nan	nan	nan	nan	nan	nan	nan	nan	nan	-1101.717041015625	1335.757080078125	320.0246582031249	-1123.089477539062	1030.68310546875	322.6263427734374	-990.6331787109374	1267.814331054688	310.7108764648437	-938.0169677734374	1106.838134765625	316.0280151367187	-1121.883911132812	1240.60205078125	439.9972229003906	-973.5562744140625	874.8969726562501	196.8624114990234	-933.3511352539062	893.5303955078126	407.2612915039062	-1129.836303710938	894.8146972656251	288.1789550781249	-1114.161987304688	904.7625732421876	371.5481262207031	-1055.653686523438	548.9696655273439	127.7384796142577	-1061.336059570312	435.8697509765626	170.5097351074218	-1049.952392578125	413.9110107421876	292.3890991210937	-1013.204895019531	390.5234375000001	210.6862182617187	-1068.706298828125	354.0584716796876	212.0645751953124	-1293.871948242188	313.8445129394532	162.8674926757812	-1376.85400390625	198.5540924072266	223.1729583740234	-1344.9072265625	184.0525512695313	295.8524475097656	-1429.800170898438	222.5404205322266	273.1358947753905	-1360.371826171875	48.20108032226571	256.5014038085937	-1399.4443359375	51.10129928588876	220.4853363037109	-889.6614379882812	534.5797119140625	473.0029907226562	-884.1031494140625	479.6733703613282	424.5876159667968	-895.2259521484375	480.0117492675782	289.2239685058593	-823.0984497070312	482.3253173828126	348.4716796874999	-825.3634643554688	413.6473693847657	356.6493225097656	-893.7177734375	192.9247436523438	439.8945007324218	-881.614013671875	69.93084716796881	381.5577697753906	-854.3480224609375	90.38759613037115	303.6671142578124	-934.2606201171875	38.84961318969732	335.5554809570312	-735.7520141601562	39.88755798339848	372.9894409179687	-769.8967895507812	22.79664993286137	416.3918457031249	-1121.680908203125	603.7232666015626	213.9100646972656	-1098.542236328125	558.9649047851564	175.2961273193359	-1119.273071289062	508.4588928222657	213.2953948974609	-1175.223388671875	287.1915283203126	243.3931884765624	-1223.3193359375	266.5646362304688	199.311294555664	-1252.08447265625	233.0809020996095	254.4665527343749	-1097.629272460938	411.0635070800782	169.253433227539	-1082.619262695312	395.8239440917969	290.9509582519531	-958.242431640625	611.6434326171876	453.9506835937499	-896.338134765625	582.036376953125	440.2886962890624	-922.6961059570312	518.5906372070312	434.8176269531249	-834.3151245117188	331.6555786132813	341.5660400390624	-840.0059204101562	276.1424255371094	394.0338439941406	-841.8203125	231.4131011962891	338.5967407226562	-884.09912109375	447.6331481933594	419.5405578613281	-897.218017578125	432.9590148925782	293.0242614746093	-1054.177124023438	946.8100585937501	167.9192504882812	-1004.732116699219	971.7802124023439	454.2713317871093	-1001.545959472656	832.9216308593751	304.2200622558593	-1001.545959472656	6.132700267335766e-14	304.2200622558593	9.27692985534668	2.026054859161377	0.5057001113891607	0.5041556954383861	-27.4062328338623	-45.07544326782227	8.824368476867676	28.92539405822754	23.5296459197998	-1.25231608801908e-15	0	20.45187377929688	-5.710796833038329	-0.2383575141429898	-21.12882423400879	-1.102561473846436	-18.5223503112793	-12.48203659057617	-1.267936706542969	-4.444860935211182	1.587977528572083	-9.694306116411524e-17	0	1.583200335502625	4.453690528869627	-7.412280082702637	8.387814521789551	-4.453690528869629	7.412280082702637	8.387814521789551	0.9712595939636226	-3.11421012878418	3.835342407226562	-0.971259593963623	3.11421012878418	3.835342407226562	5.862764835357665	-10.36629867553711	-4.313210964202881	-5.862764835357665	10.36629867553711	-4.313210964202881	-25.14314460754395	-3.048849582672118	18.17707252502441	-1.294165134429938	-10.79049205780029	90.78070831298828	-2.375396966121382e-17	-0.387931764125824	-1.454511145632442e-33	-8.538555013831946e-18	-0.1394451856613159	-5.228357033516439e-34	-1.765779149281682e-17	-0.2883736193180084	-1.081227891584474e-33	-4.827312385803604e-18	-0.07883599400520325	-2.955876330879378e-34	4.982028534559558e-17	0.8136270046234131	3.050612649054571e-33	-3.773003390765055e-17	-0.6161782145500183	-2.310298262836267e-33	7.784301425179955e-18	0.1271272897720337	4.766509911972406e-34	7.784301425179955e-18	0.1271272897720337	4.766509911972406e-34	nan	nan	nan	-2.015865325927734	10.57070350646973	-0.3465141057968141	nan	nan	nan	3.532253742218026	107.7543640136719	-20.54908561706543	0.1601900905370712	-0.1815673857927322	0.4044287800788879	0.2158240526914604	1.899962425231934	-10.45064163208008	-0.0735024660825729	1.134978175163269	0.3774760365486145	0.5439715981483454	-10.07118225097656	-1.357039451599121	-0.0446676090359686	2.447793006896973	-0.4300345480442047	0.4496982097625726	-9.11713695526123	1.32918119430542	-0.08696401864290257	-5.105199337005615	-2.00727653503418	-0.08696401864290257	-5.105199337005615	-2.00727653503418	nan	nan	nan	-1207.614624023438	-228.0411224365234	911.9780273437499	-1.43393488751442e-14	-23.76306343078613	81.39036560058594	-24.1737937927246	-22.15134239196777	-89.69267272949219	63.17882919311523	6.152016639709469	-30.84850120544433	-248.2720184326172	-20.62771797180174	-555.3035278320312	94.4897994995117	33.65199661254882	302.3822021484375	-603.814697265625	-100.7334289550781	-9.888646125793494	-71.21940612792973	30.32416152954102	599.6591796875	71.21940612792964	-30.32416152954102	599.6591796875	
